<?xml version="1.0" standalone="no"?>
<!DOCTYPE svg PUBLIC "-//W3C//DTD SVG 1.1//EN" "http://www.w3.org/Graphics/SVG/1.1/DTD/svg11.dtd" >
<svg xmlns="http://www.w3.org/2000/svg">
<metadata>Generated by IcoMoon</metadata>
<defs>
<font id="critical-editor" horiz-adv-x="1024">
<font-face units-per-em="1024" ascent="960" descent="-64" />
<missing-glyph horiz-adv-x="1024" />
<glyph unicode="&#x20;" horiz-adv-x="512" d="" />
<glyph unicode="&#xe900;" glyph-name="filter-filled-24" d="M469.333 85.334q-18.133 0-30.4 12.267t-12.267 30.4v256l-247.467 315.733q-16 21.333-4.8 44.8t38.933 23.467h597.333q27.733 0 38.933-23.467t-4.8-44.8l-247.467-315.733v-256q0-18.133-12.267-30.4t-30.4-12.267h-85.333z" />
<glyph unicode="&#xe901;" glyph-name="filter-24" d="M469.333 85.334q-18.133 0-30.4 12.267t-12.267 30.4v256l-247.467 315.733q-16 21.333-4.8 44.8t38.933 23.467h597.333q27.733 0 38.933-23.467t-4.8-44.8l-247.467-315.733v-256q0-18.133-12.267-30.4t-30.4-12.267h-85.333zM512 413.867l211.2 268.8h-422.4l211.2-268.8z" />
<glyph unicode="&#xe902;" glyph-name="sort-24" d="M128 170.667v85.333h256v-85.333h-256zM128 384v85.333h512v-85.333h-512zM128 597.334v85.333h768v-85.333h-768z" />
<glyph unicode="&#xe903;" glyph-name="calendar-clock-24" d="M213.333 597.334h597.333v85.333h-597.333v-85.333zM213.333 597.334v0zM213.333-0q-35.2 0-60.267 25.067t-25.067 60.267v597.333q0 35.2 25.067 60.267t60.267 25.067h42.667v85.333h85.333v-85.333h341.333v85.333h85.333v-85.333h42.667q35.2 0 60.267-25.067t25.067-60.267v-242.133q-20.267 9.6-41.6 16t-43.733 9.6v45.867h-597.333v-426.667h268.8q7.467-23.467 17.6-44.8t24-40.533h-310.4zM768-42.666q-88.533 0-150.933 62.4t-62.4 150.933 62.4 150.933 150.933 62.4 150.933-62.4 62.4-150.933-62.4-150.933-150.933-62.4zM839.467 69.334l29.867 29.867-80 80v119.467h-42.667v-136.533l92.8-92.8z" />
<glyph unicode="&#xe904;" glyph-name="drag-handle-24" d="M170.667 298.667v85.333h682.667v-85.333h-682.667zM170.667 469.334v85.333h682.667v-85.333h-682.667z" />
<glyph unicode="&#xe905;" glyph-name="list-view-24" d="M384 170.667h469.333v114.133h-469.333v-114.133zM170.667 568.534h128v114.133h-128v-114.133zM170.667 369.067h128v114.133h-128v-114.133zM170.667 170.667h128v114.133h-128v-114.133zM384 369.067h469.333v114.133h-469.333v-114.133zM384 568.534h469.333v114.133h-469.333v-114.133zM170.667 85.334q-35.2 0-60.267 25.067t-25.067 60.267v512q0 35.2 25.067 60.267t60.267 25.067h682.667q35.2 0 60.267-25.067t25.067-60.267v-512q0-35.2-25.067-60.267t-60.267-25.067h-682.667z" />
<glyph unicode="&#xe906;" glyph-name="grid-view-24" d="M128 469.334v341.333h341.333v-341.333h-341.333zM128 42.667v341.333h341.333v-341.333h-341.333zM554.667 469.334v341.333h341.333v-341.333h-341.333zM554.667 42.667v341.333h341.333v-341.333h-341.333zM213.333 554.667h170.667v170.667h-170.667v-170.667zM640 554.667h170.667v170.667h-170.667v-170.667zM640 128h170.667v170.667h-170.667v-170.667zM213.333 128h170.667v170.667h-170.667v-170.667z" />
<glyph unicode="&#xe907;" glyph-name="data-object-24" d="M640 85.334q-18.133 0-30.4 12.267t-12.267 30.4 12.267 30.4 30.4 12.267h85.333q18.133 0 30.4 12.267t12.267 30.4v85.333q0 40.533 23.467 73.6t61.867 46.933v14.933q-38.4 13.867-61.867 46.933t-23.467 73.6v85.333q0 18.133-12.267 30.4t-30.4 12.267h-85.333q-18.133 0-30.4 12.267t-12.267 30.4 12.267 30.4 30.4 12.267h85.333q53.333 0 90.667-37.333t37.333-90.667v-85.333q0-18.133 12.267-30.4t30.4-12.267 30.4-12.267 12.267-30.4v-85.333q0-18.133-12.267-30.4t-30.4-12.267-30.4-12.267-12.267-30.4v-85.333q0-53.333-37.333-90.667t-90.667-37.333h-85.333zM298.667 85.334q-53.333 0-90.667 37.333t-37.333 90.667v85.333q0 18.133-12.267 30.4t-30.4 12.267-30.4 12.267-12.267 30.4v85.333q0 18.133 12.267 30.4t30.4 12.267 30.4 12.267 12.267 30.4v85.333q0 53.333 37.333 90.667t90.667 37.333h85.333q18.133 0 30.4-12.267t12.267-30.4-12.267-30.4-30.4-12.267h-85.333q-18.133 0-30.4-12.267t-12.267-30.4v-85.333q0-40.533-23.467-73.6t-61.867-46.933v-14.933q38.4-13.867 61.867-46.933t23.467-73.6v-85.333q0-18.133 12.267-30.4t30.4-12.267h85.333q18.133 0 30.4-12.267t12.267-30.4-12.267-30.4-30.4-12.267h-85.333z" />
<glyph unicode="&#xe908;" glyph-name="terminal-24" d="M170.667 85.334q-35.2 0-60.267 25.067t-25.067 60.267v512q0 35.2 25.067 60.267t60.267 25.067h682.667q35.2 0 60.267-25.067t25.067-60.267v-512q0-35.2-25.067-60.267t-60.267-25.067h-682.667zM170.667 170.667h682.667v426.667h-682.667v-426.667zM320 213.334l-59.733 59.733 109.867 110.933-110.933 110.933 60.8 59.733 170.667-170.667-170.667-170.667zM512 213.334v85.333h256v-85.333h-256z" />
<glyph unicode="&#xe909;" glyph-name="edit-24" d="M213.333 128h60.8l417.067 417.067-60.8 60.8-417.067-417.067v-60.8zM170.667 42.667q-18.133 0-30.4 12.267t-12.267 30.4v103.467q0 17.067 6.4 32.533t18.133 27.2l538.667 537.6q12.8 11.733 28.267 18.133t32.533 6.4 33.067-6.4 27.733-19.2l58.667-59.733q12.8-11.733 18.667-27.733t5.867-32q0-17.067-5.867-32.533t-18.667-28.267l-537.6-537.6q-11.733-11.733-27.2-18.133t-32.533-6.4h-103.467zM810.667 665.6v0zM660.267 574.934l-29.867 30.933 60.8-60.8-30.933 29.867z" />
<glyph unicode="&#xe90a;" glyph-name="lock-24" d="M256-0q-35.2 0-60.267 25.067t-25.067 60.267v426.667q0 35.2 25.067 60.267t60.267 25.067h42.667v85.333q0 88.533 62.4 150.933t150.933 62.4 150.933-62.4 62.4-150.933v-85.333h42.667q35.2 0 60.267-25.067t25.067-60.267v-426.667q0-35.2-25.067-60.267t-60.267-25.067h-512zM256 85.334h512v426.667h-512v-426.667zM512 213.334q35.2 0 60.267 25.067t25.067 60.267-25.067 60.267-60.267 25.067-60.267-25.067-25.067-60.267 25.067-60.267 60.267-25.067zM384 597.334h256v85.333q0 53.333-37.333 90.667t-90.667 37.333-90.667-37.333-37.333-90.667v-85.333zM256 85.334v0z" />
<glyph unicode="&#xe90b;" glyph-name="public-24" d="M512-0q-88.533 0-166.4 33.6t-135.467 91.2-91.2 135.467-33.6 166.4 33.6 166.4 91.2 135.467 135.467 91.2 166.4 33.6 166.4-33.6 135.467-91.2 91.2-135.467 33.6-166.4-33.6-166.4-91.2-135.467-135.467-91.2-166.4-33.6zM469.333 87.467v83.2q-35.2 0-60.267 25.067t-25.067 60.267v42.667l-204.8 204.8q-3.2-19.2-5.867-38.4t-2.667-38.4q0-129.067 84.8-226.133t213.867-113.067zM763.733 196.267q21.333 23.467 38.4 50.667t28.267 56.533 17.067 60.267 5.867 62.933q0 104.533-58.133 190.933t-155.2 124.8v-17.067q0-35.2-25.067-60.267t-60.267-25.067h-85.333v-85.333q0-18.133-12.267-30.4t-30.4-12.267h-85.333v-85.333h256q18.133 0 30.4-12.267t12.267-30.4v-128h42.667q27.733 0 50.133-16.533t30.933-43.2z" />
<glyph unicode="&#xe90c;" glyph-name="delete-24" d="M298.667 42.667q-35.2 0-60.267 25.067t-25.067 60.267v554.667h-42.667v85.333h213.333v42.667h256v-42.667h213.333v-85.333h-42.667v-554.667q0-35.2-25.067-60.267t-60.267-25.067h-426.667zM725.333 682.667h-426.667v-554.667h426.667v554.667zM384 213.334h85.333v384h-85.333v-384zM554.667 213.334h85.333v384h-85.333v-384zM298.667 682.667v0z" />
<glyph unicode="&#xe90d;" glyph-name="add-24" d="M469.333 384h-213.333q-18.133 0-30.4 12.267t-12.267 30.4 12.267 30.4 30.4 12.267h213.333v213.333q0 18.133 12.267 30.4t30.4 12.267 30.4-12.267 12.267-30.4v-213.333h213.333q18.133 0 30.4-12.267t12.267-30.4-12.267-30.4-30.4-12.267h-213.333v-213.333q0-18.133-12.267-30.4t-30.4-12.267-30.4 12.267-12.267 30.4v213.333z" />
<glyph unicode="&#xe90e;" glyph-name="article-filled-24" d="M213.333 42.667q-35.2 0-60.267 25.067t-25.067 60.267v597.333q0 35.2 25.067 60.267t60.267 25.067h597.333q35.2 0 60.267-25.067t25.067-60.267v-597.333q0-35.2-25.067-60.267t-60.267-25.067h-597.333zM341.333 213.334h213.333q18.133 0 30.4 12.267t12.267 30.4-12.267 30.4-30.4 12.267h-213.333q-18.133 0-30.4-12.267t-12.267-30.4 12.267-30.4 30.4-12.267zM341.333 384h341.333q18.133 0 30.4 12.267t12.267 30.4-12.267 30.4-30.4 12.267h-341.333q-18.133 0-30.4-12.267t-12.267-30.4 12.267-30.4 30.4-12.267zM341.333 554.667h341.333q18.133 0 30.4 12.267t12.267 30.4-12.267 30.4-30.4 12.267h-341.333q-18.133 0-30.4-12.267t-12.267-30.4 12.267-30.4 30.4-12.267z" />
<glyph unicode="&#xe90f;" glyph-name="article-24" d="M213.333 42.667q-35.2 0-60.267 25.067t-25.067 60.267v597.333q0 35.2 25.067 60.267t60.267 25.067h597.333q35.2 0 60.267-25.067t25.067-60.267v-597.333q0-35.2-25.067-60.267t-60.267-25.067h-597.333zM213.333 128h597.333v597.333h-597.333v-597.333zM213.333 725.334v0zM341.333 213.334h213.333q18.133 0 30.4 12.267t12.267 30.4-12.267 30.4-30.4 12.267h-213.333q-18.133 0-30.4-12.267t-12.267-30.4 12.267-30.4 30.4-12.267zM341.333 384h341.333q18.133 0 30.4 12.267t12.267 30.4-12.267 30.4-30.4 12.267h-341.333q-18.133 0-30.4-12.267t-12.267-30.4 12.267-30.4 30.4-12.267zM341.333 554.667h341.333q18.133 0 30.4 12.267t12.267 30.4-12.267 30.4-30.4 12.267h-341.333q-18.133 0-30.4-12.267t-12.267-30.4 12.267-30.4 30.4-12.267z" />
<glyph unicode="&#xe910;" glyph-name="chevron-left-24" d="M597.333 170.667l-256 256 256 256 59.733-59.733-196.267-196.267 196.267-196.267-59.733-59.733z" />
<glyph unicode="&#xe911;" glyph-name="chevron-right-24" d="M537.6 426.667l-166.4 166.4q-11.733 11.733-11.733 29.867t11.733 29.867 29.867 11.733 29.867-11.733l196.267-196.267q6.4-6.4 9.067-13.867t2.667-16-2.667-16-9.067-13.867l-196.267-196.267q-11.733-11.733-29.867-11.733t-29.867 11.733-11.733 29.867 11.733 29.867l166.4 166.4z" />
<glyph unicode="&#xe912;" glyph-name="close-24" d="M512 366.934l-209.067-209.067q-11.733-11.733-29.867-11.733t-29.867 11.733-11.733 29.867 11.733 29.867l209.067 209.067-209.067 209.067q-11.733 11.733-11.733 29.867t11.733 29.867 29.867 11.733 29.867-11.733l209.067-209.067 209.067 209.067q11.733 11.733 29.867 11.733t29.867-11.733 11.733-29.867-11.733-29.867l-209.067-209.067 209.067-209.067q11.733-11.733 11.733-29.867t-11.733-29.867-29.867-11.733-29.867 11.733l-209.067 209.067z" />
<glyph unicode="&#xe913;" glyph-name="error-24" d="M512 213.334q18.133 0 30.4 12.267t12.267 30.4-12.267 30.4-30.4 12.267-30.4-12.267-12.267-30.4 12.267-30.4 30.4-12.267zM512 384q18.133 0 30.4 12.267t12.267 30.4v170.667q0 18.133-12.267 30.4t-30.4 12.267-30.4-12.267-12.267-30.4v-170.667q0-18.133 12.267-30.4t30.4-12.267zM512-0q-88.533 0-166.4 33.6t-135.467 91.2-91.2 135.467-33.6 166.4 33.6 166.4 91.2 135.467 135.467 91.2 166.4 33.6 166.4-33.6 135.467-91.2 91.2-135.467 33.6-166.4-33.6-166.4-91.2-135.467-135.467-91.2-166.4-33.6zM512 85.334q142.933 0 242.133 99.2t99.2 242.133-99.2 242.133-242.133 99.2-242.133-99.2-99.2-242.133 99.2-242.133 242.133-99.2z" />
<glyph unicode="&#xe914;" glyph-name="experiment-24" d="M213.333 42.667q-54.4 0-77.333 48.533t11.2 90.133l236.8 288v256h-42.667q-18.133 0-30.4 12.267t-12.267 30.4 12.267 30.4 30.4 12.267h341.333q18.133 0 30.4-12.267t12.267-30.4-12.267-30.4-30.4-12.267h-42.667v-256l236.8-288q34.133-41.6 11.2-90.133t-77.333-48.533h-597.333zM298.667 170.667h426.667l-145.067 170.667h-136.533l-145.067-170.667zM213.333 128h597.333l-256 311.467v285.867h-85.333v-285.867l-256-311.467z" />
<glyph unicode="&#xe915;" glyph-name="folder-24" d="M170.667 85.334q-35.2 0-60.267 25.067t-25.067 60.267v512q0 35.2 25.067 60.267t60.267 25.067h220.8q17.067 0 32.533-6.4t27.2-18.133l60.8-60.8h341.333q35.2 0 60.267-25.067t25.067-60.267v-426.667q0-35.2-25.067-60.267t-60.267-25.067h-682.667zM170.667 170.667h682.667v426.667h-376.533l-85.333 85.333h-220.8v-512zM170.667 170.667v0z" />
<glyph unicode="&#xe916;" glyph-name="folder-open-filled-24" d="M170.667 85.334q-35.2 0-60.267 25.067t-25.067 60.267v512q0 35.2 25.067 60.267t60.267 25.067h220.8q17.067 0 32.533-6.4t27.2-18.133l60.8-60.8h384q18.133 0 30.4-12.267t12.267-30.4-12.267-30.4-30.4-12.267h-561.067q-66.133 0-115.2-41.6t-49.067-105.6v-279.467l84.267 280.533q8.533 27.733 31.467 44.267t50.667 16.533h550.4q43.733 0 68.8-34.667t13.333-75.2l-76.8-256q-8.533-27.733-31.467-44.267t-50.667-16.533h-640z" />
<glyph unicode="&#xe917;" glyph-name="folder-open-24" d="M170.667 85.334q-35.2 0-60.267 25.067t-25.067 60.267v512q0 35.2 25.067 60.267t60.267 25.067h220.8q17.067 0 32.533-6.4t27.2-18.133l60.8-60.8h384q18.133 0 30.4-12.267t12.267-30.4-12.267-30.4-30.4-12.267h-419.2l-85.333 85.333h-220.8v-512l84.267 280.533q8.533 27.733 31.467 44.267t50.667 16.533h550.4q43.733 0 68.8-34.667t13.333-75.2l-76.8-256q-8.533-27.733-31.467-44.267t-50.667-16.533h-640zM260.267 170.667h550.4l76.8 256h-550.4l-76.8-256zM170.667 450.134v0zM260.267 170.667v0z" />
<glyph unicode="&#xe918;" glyph-name="image-24" d="M213.333 42.667q-35.2 0-60.267 25.067t-25.067 60.267v597.333q0 35.2 25.067 60.267t60.267 25.067h597.333q35.2 0 60.267-25.067t25.067-60.267v-597.333q0-35.2-25.067-60.267t-60.267-25.067h-597.333zM213.333 128h597.333v597.333h-597.333v-597.333zM213.333 128v0zM298.667 213.334h426.667q12.8 0 19.2 11.733t-2.133 22.4l-117.333 156.8q-6.4 8.533-17.067 8.533t-17.067-8.533l-110.933-148.267-78.933 105.6q-6.4 8.533-17.067 8.533t-17.067-8.533l-85.333-114.133q-8.533-10.667-2.133-22.4t19.2-11.733z" />
<glyph unicode="&#xe919;" glyph-name="info-24" d="M512 213.334q18.133 0 30.4 12.267t12.267 30.4v170.667q0 18.133-12.267 30.4t-30.4 12.267-30.4-12.267-12.267-30.4v-170.667q0-18.133 12.267-30.4t30.4-12.267zM512 554.667q18.133 0 30.4 12.267t12.267 30.4-12.267 30.4-30.4 12.267-30.4-12.267-12.267-30.4 12.267-30.4 30.4-12.267zM512-0q-88.533 0-166.4 33.6t-135.467 91.2-91.2 135.467-33.6 166.4 33.6 166.4 91.2 135.467 135.467 91.2 166.4 33.6 166.4-33.6 135.467-91.2 91.2-135.467 33.6-166.4-33.6-166.4-91.2-135.467-135.467-91.2-166.4-33.6zM512 85.334q142.933 0 242.133 99.2t99.2 242.133-99.2 242.133-242.133 99.2-242.133-99.2-99.2-242.133 99.2-242.133 242.133-99.2z" />
<glyph unicode="&#xe91a;" glyph-name="media-folder-24" d="M128 42.667q-35.2 0-60.267 25.067t-25.067 60.267v512q0 18.133 12.267 30.4t30.4 12.267 30.4-12.267 12.267-30.4v-512h682.667q18.133 0 30.4-12.267t12.267-30.4-12.267-30.4-30.4-12.267h-682.667zM298.667 213.334q-35.2 0-60.267 25.067t-25.067 60.267v469.333q0 35.2 25.067 60.267t60.267 25.067h178.133q17.067 0 32.533-6.4t27.2-18.133l60.8-60.8h298.667q35.2 0 60.267-25.067t25.067-60.267v-384q0-35.2-25.067-60.267t-60.267-25.067h-597.333zM298.667 298.667h597.333v384h-333.867l-85.333 85.333h-178.133v-469.333zM298.667 298.667v0zM565.333 448l-49.067 64q-6.4 8.533-17.067 8.533t-17.067-8.533l-71.467-93.867q-8.533-10.667-2.667-22.4t19.733-11.733h339.2q13.867 0 19.733 11.733t-2.667 22.4l-103.467 135.467q-6.4 8.533-17.067 8.533t-17.067-8.533l-81.067-105.6z" />
<glyph unicode="&#xe91b;" glyph-name="menu-24" d="M128 170.667v85.333h768v-85.333h-768zM128 384v85.333h768v-85.333h-768zM128 597.334v85.333h768v-85.333h-768z" />
<glyph unicode="&#xe91c;" glyph-name="save-24" d="M213.333 42.667q-35.2 0-60.267 25.067t-25.067 60.267v597.333q0 35.2 25.067 60.267t60.267 25.067h476.8q17.067 0 32.533-6.4t27.2-18.133l121.6-121.6q11.733-11.733 18.133-27.2t6.4-32.533v-476.8q0-35.2-25.067-60.267t-60.267-25.067h-597.333zM810.667 603.734l-121.6 121.6h-475.733v-597.333h597.333v475.733zM512 170.667q53.333 0 90.667 37.333t37.333 90.667-37.333 90.667-90.667 37.333-90.667-37.333-37.333-90.667 37.333-90.667 90.667-37.333zM298.667 512h298.667q18.133 0 30.4 12.267t12.267 30.4v85.333q0 18.133-12.267 30.4t-30.4 12.267h-298.667q-18.133 0-30.4-12.267t-12.267-30.4v-85.333q0-18.133 12.267-30.4t30.4-12.267zM213.333 603.734v0z" />
<glyph unicode="&#xe91d;" glyph-name="search-24" d="M405.333 256q-116.267 0-196.8 80.533t-80.533 196.8 80.533 196.8 196.8 80.533 196.8-80.533 80.533-196.8q0-46.933-14.933-88.533t-40.533-73.6l238.933-238.933q11.733-11.733 11.733-29.867t-11.733-29.867-29.867-11.733-29.867 11.733l-238.933 238.933q-32-25.6-73.6-40.533t-88.533-14.933zM405.333 341.334q80 0 136 56t56 136-56 136-136 56-136-56-56-136 56-136 136-56z" />
<glyph unicode="&#xe91e;" glyph-name="settings-filled-24" d="M461.867-0q-28.8 0-49.6 19.2t-25.067 46.933l-9.6 70.4q-13.867 5.333-26.133 12.8t-24 16l-66.133-27.733q-26.667-11.733-53.333-2.133t-41.6 34.133l-50.133 87.467q-14.933 24.533-8.533 52.267t28.8 45.867l56.533 42.667q-1.067 7.467-1.067 14.4v28.8q0 6.933 1.067 14.4l-56.533 42.667q-22.4 18.133-28.8 45.867t8.533 52.267l50.133 87.467q14.933 24.533 41.6 34.133t53.333-2.133l66.133-27.733q11.733 8.533 24.533 16t25.6 12.8l9.6 70.4q4.267 27.733 25.067 46.933t49.6 19.2h100.267q28.8 0 49.6-19.2t25.067-46.933l9.6-70.4q13.867-5.333 26.133-12.8t24-16l66.133 27.733q26.667 11.733 53.333 2.133t41.6-34.133l50.133-87.467q14.933-24.533 8.533-52.267t-28.8-45.867l-56.533-42.667q1.067-7.467 1.067-14.4v-28.8q0-6.933-2.133-14.4l56.533-42.667q22.4-18.133 28.8-45.867t-8.533-52.267l-51.2-87.467q-14.933-24.533-41.6-34.133t-53.333 2.133l-64 27.733q-11.733-8.533-24.533-16t-25.6-12.8l-9.6-70.4q-4.267-27.733-25.067-46.933t-49.6-19.2h-100.267zM514.133 277.334q61.867 0 105.6 43.733t43.733 105.6-43.733 105.6-105.6 43.733q-62.933 0-106.133-43.733t-43.2-105.6 43.2-105.6 106.133-43.733z" />
<glyph unicode="&#xe91f;" glyph-name="settings-24" d="M461.867-0q-28.8 0-49.6 19.2t-25.067 46.933l-9.6 70.4q-13.867 5.333-26.133 12.8t-24 16l-66.133-27.733q-26.667-11.733-53.333-2.133t-41.6 34.133l-50.133 87.467q-14.933 24.533-8.533 52.267t28.8 45.867l56.533 42.667q-1.067 7.467-1.067 14.4v28.8q0 6.933 1.067 14.4l-56.533 42.667q-22.4 18.133-28.8 45.867t8.533 52.267l50.133 87.467q14.933 24.533 41.6 34.133t53.333-2.133l66.133-27.733q11.733 8.533 24.533 16t25.6 12.8l9.6 70.4q4.267 27.733 25.067 46.933t49.6 19.2h100.267q28.8 0 49.6-19.2t25.067-46.933l9.6-70.4q13.867-5.333 26.133-12.8t24-16l66.133 27.733q26.667 11.733 53.333 2.133t41.6-34.133l50.133-87.467q14.933-24.533 8.533-52.267t-28.8-45.867l-56.533-42.667q1.067-7.467 1.067-14.4v-28.8q0-6.933-2.133-14.4l56.533-42.667q22.4-18.133 28.8-45.867t-8.533-52.267l-51.2-87.467q-14.933-24.533-41.6-34.133t-53.333 2.133l-64 27.733q-11.733-8.533-24.533-16t-25.6-12.8l-9.6-70.4q-4.267-27.733-25.067-46.933t-49.6-19.2h-100.267zM469.333 85.334h84.267l14.933 113.067q33.067 8.533 61.333 25.067t51.733 40l105.6-43.733 41.6 72.533-91.733 69.333q5.333 14.933 7.467 31.467t2.133 33.6-2.133 33.6-7.467 31.467l91.733 69.333-41.6 72.533-105.6-44.8q-23.467 24.533-51.733 41.067t-61.333 25.067l-13.867 113.067h-84.267l-14.933-113.067q-33.067-8.533-61.333-25.067t-51.733-40l-105.6 43.733-41.6-72.533 91.733-68.267q-5.333-16-7.467-32t-2.133-34.133q0-17.067 2.133-33.067t7.467-32l-91.733-69.333 41.6-72.533 105.6 44.8q23.467-24.533 51.733-41.067t61.333-25.067l13.867-113.067zM514.133 277.334q61.867 0 105.6 43.733t43.733 105.6-43.733 105.6-105.6 43.733q-62.933 0-106.133-43.733t-43.2-105.6 43.2-105.6 106.133-43.733z" />
<glyph unicode="&#xe920;" glyph-name="upload-24" d="M256 85.334q-35.2 0-60.267 25.067t-25.067 60.267v85.333q0 18.133 12.267 30.4t30.4 12.267 30.4-12.267 12.267-30.4v-85.333h512v85.333q0 18.133 12.267 30.4t30.4 12.267 30.4-12.267 12.267-30.4v-85.333q0-35.2-25.067-60.267t-60.267-25.067h-512zM469.333 603.734l-80-80q-12.8-12.8-30.4-12.267t-30.4 13.333q-11.733 12.8-12.267 29.867t12.267 29.867l153.6 153.6q6.4 6.4 13.867 9.067t16 2.667 16-2.667 13.867-9.067l153.6-153.6q12.8-12.8 12.267-29.867t-12.267-29.867q-12.8-12.8-30.4-13.333t-30.4 12.267l-80 80v-305.067q0-18.133-12.267-30.4t-30.4-12.267-30.4 12.267-12.267 30.4v305.067z" />
<glyph unicode="&#xe921;" glyph-name="download-24" d="M512 274.134q-8.533 0-16 2.667t-13.867 9.067l-153.6 153.6q-12.8 12.8-12.267 29.867t12.267 29.867q12.8 12.8 30.4 13.333t30.4-12.267l80-80v305.067q0 18.133 12.267 30.4t30.4 12.267 30.4-12.267 12.267-30.4v-305.067l80 80q12.8 12.8 30.4 12.267t30.4-13.333q11.733-12.8 12.267-29.867t-12.267-29.867l-153.6-153.6q-6.4-6.4-13.867-9.067t-16-2.667zM256 85.334q-35.2 0-60.267 25.067t-25.067 60.267v85.333q0 18.133 12.267 30.4t30.4 12.267 30.4-12.267 12.267-30.4v-85.333h512v85.333q0 18.133 12.267 30.4t30.4 12.267 30.4-12.267 12.267-30.4v-85.333q0-35.2-25.067-60.267t-60.267-25.067h-512z" />
</font>
</defs>
</svg>
